<svg xmlns="http://www.w3.org/2000/svg" viewBox="0 0 512 512" role="img" aria-label="Magnetite">
  <rect width="512" height="512" rx="96" fill="#08090c"/>
  <svg x="64" y="64" width="384" height="384" viewBox="0 0 128 128">
    <defs>
      <linearGradient id="mg" x1="0" y1="0" x2="1" y2="1">
        <stop offset="0" stop-color="#8b6cff"/>
        <stop offset="1" stop-color="#ff4d9d"/>
      </linearGradient>
    </defs>
    <path d="M10,66 A54,13 0 0 1 118,66" fill="none" stroke="url(#mg)" stroke-width="3" stroke-linecap="round" opacity="0.28"/>
    <g stroke-linejoin="round">
      <polygon points="64,14 64,64 20,64" fill="url(#mg)"/>
      <polygon points="64,14 108,64 64,64" fill="url(#mg)"/>
      <polygon points="64,14 108,64 64,64" fill="#ffffff" opacity="0.12"/>
      <polygon points="64,114 20,64 64,64" fill="url(#mg)"/>
      <polygon points="64,114 20,64 64,64" fill="#000000" opacity="0.14"/>
      <polygon points="64,114 108,64 64,64" fill="url(#mg)"/>
      <polygon points="64,114 108,64 64,64" fill="#000000" opacity="0.30"/>
      <path d="M64,14 L108,64 L64,114 L20,64 Z M20,64 H108 M64,14 V114"
            fill="none" stroke="#0b0a14" stroke-width="2" opacity="0.40"/>
    </g>
    <path d="M10,66 A54,13 0 0 0 118,66" fill="none" stroke="url(#mg)" stroke-width="3.5" stroke-linecap="round"/>
    <circle cx="10" cy="66" r="5" fill="#7b61ff"/>
    <circle cx="118" cy="66" r="5" fill="#ff4d9d"/>
  </svg>
</svg>
