<svg xmlns="http://www.w3.org/2000/svg" viewBox="0 0 100 100" preserveAspectRatio="xMidYMid slice">
  <defs>
    <linearGradient id="fieldGrad" x1="0%" y1="0%" x2="100%" y2="0%">
      <stop offset="0%" stop-color="#f59e0b" stop-opacity="0.15"/>
      <stop offset="50%" stop-color="#f59e0b" stop-opacity="0.05"/>
      <stop offset="100%" stop-color="#f59e0b" stop-opacity="0.15"/>
    </linearGradient>
  </defs>
  <rect width="100" height="100" fill="#0a0a0f"/>
  <g fill="none" stroke="url(#fieldGrad)" stroke-width="0.5">
    <path d="M10,50 Q30,20 50,50 Q70,80 90,50"/>
    <path d="M10,50 Q30,80 50,50 Q70,20 90,50"/>
    <path d="M10,50 L90,50"/>
    <path d="M30,25 Q50,35 70,25"/>
    <path d="M30,75 Q50,65 70,75"/>
    <path d="M20,35 Q50,45 80,35"/>
    <path d="M20,65 Q50,55 80,65"/>
  </g>
  <g fill="#f59e0b" opacity="0.6">
    <circle cx="15" cy="50" r="2"/>
    <circle cx="85" cy="50" r="2"/>
    <circle cx="50" cy="20" r="1.5"/>
    <circle cx="50" cy="80" r="1.5"/>
  </g>
</svg>